<svg width="431" height="145" viewBox="0 0 431 145" fill="none" xmlns="http://www.w3.org/2000/svg">
<path d="M20.7463 78.1979C21.6265 75.0469 23.8401 74.5417 26.3609 74.6667C26.4286 74.3542 26.5536 74.2292 26.5536 74.0365C26.0484 70.6354 26.9338 69.5625 30.3401 69.1875C31.9182 69.0625 33.4338 69.5 34.887 69.8177C36.4651 66.1615 37.7255 65.5938 41.8297 66.224C46.564 66.9167 51.1057 68.5573 55.5276 70.3229C56.3453 70.6354 57.1682 71.0156 58.1786 71.4531C58.1786 70.1302 57.2932 69.6927 56.663 69.0625C55.5276 67.9271 53.9495 67.1719 53.3765 65.4688C53.1265 64.7135 52.1786 64.7135 51.4859 64.4583C48.8349 63.5781 47.3193 61.8125 47.0693 59.0417C47.0015 58.0312 46.564 57.401 45.8036 56.7708C43.6578 55.1979 42.0172 53.2448 42.0797 50.4062C42.0797 49.9062 41.8922 49.526 41.5745 49.2135C39.9338 47.6354 39.1786 45.5573 38.2932 43.5417C37.4078 41.526 36.4651 39.5729 34.6318 38.1823C33.5588 37.3646 32.8036 36.1042 32.4234 34.7812C31.9182 33.0156 32.0432 31.3802 33.4338 29.9271C34.5692 28.6719 34.5068 27.9115 33.0536 26.9688C32.3609 26.526 31.6005 26.151 30.9703 25.6458C29.3922 24.4479 29.4547 23.375 31.0328 22.1146C32.1682 21.2344 33.4963 20.9844 34.887 20.6667C34.8193 20.4792 34.7568 20.224 34.6318 20.1615C33.8088 19.5938 32.8036 19.0938 32.9911 17.8333C33.1786 16.5104 34.314 16.1302 35.3245 15.8125C37.7255 15.0573 40.189 14.7448 42.6474 14.4896C48.012 13.8594 53.4443 13.2969 58.8088 12.9167C63.9182 12.599 68.9703 12.9792 73.6422 15.3125C83.2984 20.0365 93.2724 23.9427 103.371 27.6615C110.189 30.1198 116.752 33.2708 123.569 35.8542C127.548 37.3646 131.335 39.2552 134.996 41.3958C139.226 43.8542 143.074 46.8177 146.168 50.724C148.121 53.1823 150.017 55.6406 151.976 58.0312C152.668 58.8542 153.173 59.8594 154.434 60.4896C153.741 56.5208 153.491 52.7396 153.173 48.9583C152.918 45.4323 153.173 42.026 153.804 38.5625C154.496 35.0312 154.752 31.5052 155.637 27.974C157.528 20.5417 161.569 14.6198 167.882 10.2708C170.845 8.25521 173.877 6.30208 176.97 4.53646C182.397 1.44792 188.205 0.567707 194.267 1.13542C199.502 1.63542 203.668 3.96875 206.762 8.31771C209.981 12.9167 212.694 17.7031 212.319 23.5C211.939 28.9219 211.116 34.2135 208.533 39.1302C206.955 42.0885 206.762 45.4948 207.142 48.8333C207.267 50.2188 207.522 51.5417 207.522 52.9271C207.522 54.7552 205.121 56.8333 203.356 56.5208C201.335 56.1406 199.502 55.3229 198.429 53.3698C196.601 49.9688 194.96 46.5 194.835 42.4688C194.835 41.4583 194.58 40.4531 194.392 39.5052C194.074 37.6146 193.257 36.0417 191.486 35.099C190.668 34.6562 189.908 34.151 189.153 33.6458C186.882 32.0104 186.882 32.0729 184.798 34.026C181.767 36.7969 180.882 40.4531 180.632 44.2344C180.314 48.7083 180.507 53.2448 181.324 57.6562C181.955 61.3073 183.913 64.1458 186.752 66.2865C189.97 68.7448 192.877 71.5833 195.97 74.2292C197.798 75.8021 199.502 77.4427 201.21 79.0781C204.804 82.5469 207.33 86.6406 208.403 91.5573C208.908 94.0156 210.298 96.0938 210.548 98.6771C211.434 98.4896 211.371 97.7292 211.496 97.1615C212.762 91.3646 216.106 87.0208 220.715 83.5521C223.236 81.6615 225.887 80.026 228.413 78.1979C240.72 69.625 248.929 58.349 252.085 43.6042C253.095 38.8125 252.59 33.9635 250.819 29.3646C249.684 29.4271 249.434 30.2448 249.054 30.8125C247.158 33.1458 244.949 34.9688 242.298 36.3594C241.101 36.9896 239.71 37.6823 238.387 37.3646C236.554 36.9896 235.861 38.0573 235.293 39.3177C233.84 42.7188 231.632 45.6823 229.673 48.7708C228.351 50.849 226.772 52.8021 224.877 54.4427C224.246 54.9479 223.616 55.5104 222.861 55.8281C220.585 56.901 218.757 55.8281 218.694 53.3698C218.564 50.849 219.199 48.4531 219.705 46C220.397 42.5312 220.715 39.1302 220.335 35.599C220.017 32.0104 220.903 28.5417 221.47 24.9531C222.793 16.6354 227.465 10.5208 233.715 5.29167C237.694 1.95313 242.298 0.0625 247.601 0C248.548 0 249.434 0.125 250.314 0.375C258.71 2.64583 265.403 7.5625 271.085 13.7969C274.996 18.0833 276.637 23.4375 277.397 29.1094C278.47 36.9219 277.835 44.6771 276.574 52.4271C275.564 58.599 274.111 64.651 271.272 70.3229C271.21 70.4479 271.272 70.6354 271.272 70.9531C272.22 70.6979 272.788 69.9427 273.418 69.375C282.699 60.4271 293.111 53.1198 304.476 47.1302C312.804 42.7865 321.642 40.2031 330.986 39.1302C337.548 38.375 344.116 37.6146 350.741 37.4896C360.465 37.2396 369.996 38.6875 379.528 40.3906C385.71 41.4583 391.897 42.3438 398.085 43.099C399.913 43.349 401.741 43.6042 403.449 44.2969C404.71 44.8021 405.72 45.6823 405.658 47.1302C405.658 48.5208 404.71 49.276 403.512 49.7135C401.809 50.3438 400.101 50.849 398.085 51.5417C400.293 52.3646 402.314 52.2344 404.267 52.2344C405.845 52.2344 407.423 52.2969 408.752 53.3073C410.267 54.3802 410.33 55.6406 408.939 56.901C407.804 57.9062 406.476 58.474 405.153 59.1042C403.955 59.6719 402.752 60.3646 400.923 61.2448C404.08 61.5 406.543 61.1823 409.064 60.9948C409.824 60.9948 410.517 60.8073 411.272 60.7448C411.97 60.6771 412.601 60.7448 412.918 61.4375C413.293 62.1927 413.043 62.8854 412.476 63.4531C411.653 64.3333 410.58 64.901 409.569 65.5312C409.127 65.7812 408.496 65.9115 408.309 66.4115C410.137 67.8021 411.845 67.1719 413.548 66.1615C414.429 65.6562 415.502 64.7135 416.574 65.5312C417.715 66.4792 417.08 67.7396 416.767 68.8698C416.574 69.5625 416.199 70.1927 415.819 71.1406C416.892 71.1406 417.272 70.3854 417.84 69.8802C420.741 67.2344 423.455 64.3333 427.054 62.5052C427.434 62.3177 427.814 62.0052 428.257 61.8125C429.642 61.3073 430.653 62.0052 430.59 63.5156C430.59 64.9635 429.835 66.1615 429.074 67.2969C425.981 72.5885 421.752 76.9375 417.335 81.0938C416.705 81.724 415.882 82.1667 415.314 83.1146C416.324 83.1146 416.83 82.3542 417.46 81.9167C417.965 81.599 418.47 81.4115 418.976 81.7865C419.606 82.2292 419.731 82.8594 419.418 83.4896C419.038 84.2448 418.595 84.9375 418.153 85.5677C416.324 88.151 413.923 90.1719 411.59 92.25C410.199 93.5104 408.814 94.7708 407.616 96.1562C408.621 96.1562 409.257 95.4635 409.949 94.9583C412.158 93.3177 414.429 91.7448 416.83 90.3594C417.397 90.0417 417.965 89.6667 418.595 90.2344C419.293 90.9271 418.913 91.6198 418.408 92.1875C417.335 93.4479 416.199 94.6458 415.002 95.776C404.392 105.984 394.611 117.01 384.257 127.474C379.903 131.885 375.231 135.792 369.741 138.75C361.913 142.974 353.772 144.927 344.809 143.984C339.569 143.417 334.455 142.469 329.345 141.401C321.705 139.823 314.132 140.391 306.621 141.776C302.455 142.531 298.288 143.286 294.121 143.792C287.496 144.615 280.929 144.234 274.429 142.594C269.252 141.271 263.949 140.703 258.71 139.573C252.147 138.057 245.772 136.042 239.205 134.594C236.241 133.901 233.335 133.208 230.309 132.766C225.574 132.135 221.595 129.87 217.996 127.031C215.913 125.396 214.653 123.125 213.705 120.729C212.887 118.651 212.064 116.573 210.991 113.927C210.298 116.823 209.856 119.156 209.163 121.422C206.449 129.74 201.147 135.536 192.559 137.932C189.845 138.688 187.069 138.5 184.356 138.25C177.981 137.557 171.668 138.12 165.356 138.25C157.908 138.438 150.46 138.25 143.012 138.25C138.59 138.25 134.173 138.438 129.819 139.318C123.189 140.641 116.439 140.391 109.746 140.141C104.887 140.01 100.028 140.073 95.1005 140.391C90.1161 140.771 85.1943 139.823 80.2672 139.068C74.5224 138.182 68.7828 137.682 62.9755 137.24C61.3974 137.115 59.8818 136.99 58.3036 136.672C55.5901 136.042 52.8713 135.729 50.1578 135.286C44.163 134.339 39.0484 131.505 35.0745 126.844C30.4026 121.359 26.4911 115.312 22.6995 109.26C19.6109 104.349 16.3922 99.5573 12.7932 95.0208C8.87654 89.9792 5.47029 84.6875 2.43904 79.0781C1.42862 77.1875 0.548417 75.2969 0.105709 73.2188C-0.3995 70.5104 0.923416 68.9323 3.70467 68.9948C5.28279 68.9948 6.73071 69.625 8.18383 70.3229C12.6005 72.401 16.7047 74.9844 20.7463 78.2604V78.1979ZM44.8557 33.2083C48.3297 35.599 52.1786 37.3021 55.7776 40.0104C54.4495 40.4531 53.6318 40.0104 52.8088 39.8229C47.3193 38.4375 42.3349 35.8542 37.788 32.5156C37.2828 32.1354 36.7776 31.6927 36.2724 31.3802C35.7672 31.0625 35.1995 31.1875 34.7568 31.5677C34.314 31.8854 34.4443 32.3854 34.5693 32.8281C34.887 34.3385 35.8297 35.474 36.9026 36.4844C40.2515 39.6354 44.3505 41.1458 48.8349 41.651C52.8765 42.1562 56.788 43.1615 60.5745 44.5469C62.1526 45.1146 63.6682 45.8698 64.9911 47.1302C60.8297 47.2604 56.913 45.7448 52.8765 45.3698C48.7099 44.9271 44.6057 44.2344 40.314 42.1562C41.8297 45.6198 43.8453 47.5104 46.939 48.3281C48.5172 48.7083 50.1578 49.151 51.7359 49.526C55.5276 50.3438 59.314 51.0365 62.9078 52.5521C63.7932 52.9271 64.7411 53.1823 65.5588 54.4427C58.1786 54.4427 51.3609 53.1198 44.288 51.1042C45.4234 53.4323 47.1943 54.5052 48.9599 55.4479C52.3713 57.3385 56.1578 58.1615 59.8818 59.1042C60.6995 59.2917 61.7099 59.1667 62.2151 60.3021C57.9234 62.0052 53.8818 60.3021 49.7828 59.3542C50.1578 60.9948 51.3609 61.375 52.4338 61.8125C54.262 62.5052 56.1578 62.8229 58.0484 63.1979C60.0068 63.5781 62.0276 63.9583 63.9807 64.4583C64.8661 64.7135 65.8765 64.901 66.4443 66.099C63.5432 66.7292 60.8297 66.2865 57.6057 66.099C60.3245 68.3698 62.1526 70.5729 64.0484 72.8385C64.7411 73.6615 65.1838 74.6042 64.4234 75.6146C63.7307 76.4948 62.7828 76.1823 61.9026 75.8646C59.689 74.9844 57.4807 74.0365 55.2724 73.1562C50.7255 71.3906 46.1838 69.625 41.3245 69.0625C40.439 68.9323 39.3661 68.5573 38.7359 69.4375C37.9755 70.4479 38.9859 71.3281 39.4286 72.1458C41.387 75.6771 44.163 78.4479 47.6995 80.4635C59.5015 87.1458 68.9078 96.7865 79.0693 105.547C81.5328 107.625 83.8661 109.828 86.6422 111.406C88.663 112.536 90.5588 113.865 92.262 115.438C93.5849 116.698 93.9651 118.401 93.2724 119.661C92.7672 120.542 91.8193 120.729 91.3765 119.786C90.6213 118.083 89.1057 117.203 87.7776 116.068C84.5588 113.234 80.7724 111.026 78.5015 107.182C78.2463 106.74 77.6161 106.552 77.1734 106.24C74.7151 104.474 72.1265 102.833 69.7255 101.005C61.3974 94.6458 53.5068 87.776 44.4182 82.4844C41.3245 80.7188 39.1161 77.9427 37.538 74.7292C36.3349 72.276 34.189 71.7708 31.9182 71.3281C30.9703 71.1406 29.7099 71.4531 29.2672 72.401C28.8245 73.1562 29.7724 73.849 30.2151 74.5417C30.4026 74.8594 30.6578 75.1094 30.9078 75.4271C38.038 83.3646 45.4234 91.0521 54.7047 96.6615C56.913 97.9844 59.0588 99.4323 61.1422 100.943C61.9651 101.51 62.9078 101.953 63.2255 103.026C62.6578 103.526 62.1526 103.151 61.6474 103.026C57.1005 101.766 52.8765 99.7448 48.8974 97.2292C48.1422 96.724 47.5068 96.1562 46.4338 96.0938C42.2672 95.8385 38.6109 94.0781 35.387 91.5573C33.6213 90.2344 32.0432 88.7188 30.4026 87.2083C26.9338 84.1198 23.3974 81.1562 18.913 79.4583C15.6318 78.2604 12.6682 76.4323 9.63696 74.6667C8.12134 73.7865 6.54321 72.9688 5.02758 72.2135C4.45988 71.9583 3.76717 71.5833 3.26196 72.2135C2.75675 72.776 3.06925 73.4062 3.26196 74.0365C3.76717 75.5521 4.45987 76.9375 5.28279 78.2604C7.99633 82.7344 10.8974 87.0833 14.1161 91.2396C19.1057 97.7292 23.9651 104.286 28.5745 111.089C31.4755 115.375 34.4443 119.531 37.4703 123.693C40.439 127.786 44.3505 130.5 49.4026 131.443C55.4599 132.578 61.4599 133.901 67.6422 134.151C72.439 134.344 77.1734 134.719 81.9703 135.286C86.0745 135.729 90.1786 136.422 94.3453 136.229C106.085 135.792 117.887 136.297 129.627 135.099C142.252 133.776 155.002 134.344 167.689 133.646C173.627 133.333 179.434 134.089 185.304 134.906C191.173 135.667 195.97 133.714 200.137 129.87C204.934 125.458 206.449 119.594 206.637 113.422C206.762 109.073 206.887 104.786 207.71 100.568C207.96 99.3698 208.09 98.1719 207.897 96.974C206.887 89.8542 204.616 83.4271 198.809 78.7031C197.798 77.8802 196.918 77 195.908 76.1823C191.866 72.8385 187.762 69.5625 183.726 66.224C181.642 64.4583 180.127 62.3177 179.434 59.6719C178.106 54.8177 177.981 49.8438 178.361 44.9271C178.548 42.0885 178.991 39.2552 180.002 36.5469C180.882 34.0885 182.397 32.0729 184.736 31.0625C186.377 30.3698 186.377 29.6146 185.996 28.1667C185.429 25.8333 185.429 23.4375 186.439 20.5417C187.512 22.3698 187.387 23.9427 187.574 25.3906C187.892 27.7865 188.46 30.1198 190.606 31.6302C191.929 32.5781 193.257 33.5208 194.517 34.4688C196.22 32.6406 197.548 30.6875 198.559 28.4792C199.002 27.5365 199.064 26.8438 198.179 26.0885C197.486 25.5208 196.918 24.7604 196.413 24.0052C195.653 22.7448 195.908 21.4844 196.851 20.7917C197.798 20.099 199.002 20.3542 200.007 21.5469C201.017 22.8073 201.522 24.2604 201.778 25.8333C201.903 26.5885 202.028 27.2188 202.726 27.724C204.741 29.1719 206.382 31 207.772 33.1458C207.96 32.8906 208.153 32.7656 208.215 32.6406C210.423 24.6979 210.548 17.1406 205.502 10.0156C203.356 6.99479 200.767 4.84896 197.231 3.96875C191.616 2.64583 186.059 2.95833 180.819 5.47917C176.34 7.625 172.173 10.3333 168.194 13.3594C163.59 16.8229 160.559 21.4219 158.726 26.9062C156.58 33.4583 156.012 40.2031 155.637 47.0052C155.382 52.2969 156.205 57.401 157.97 62.4427C159.423 66.6667 161.819 70.3854 163.715 74.2917C165.986 78.8281 169.267 82.4844 173.184 85.5677C177.095 88.6562 180.507 92.25 183.22 96.4688C185.241 99.6198 187.387 102.708 189.47 105.859C190.413 107.307 191.173 108.885 191.804 110.521C192.054 111.151 192.054 111.844 191.423 112.286C190.918 112.667 190.351 112.474 189.845 112.224C188.46 111.469 187.007 110.901 185.871 109.766C180.632 104.661 175.835 99.2448 173.939 91.8698C173.559 90.2969 172.679 89.099 171.351 88.151C166.616 84.625 162.955 80.276 160.746 74.6667C159.991 72.7135 158.918 70.8854 157.97 68.9948C157.147 67.3594 156.074 65.849 154.689 64.5885C151.913 62.0052 149.512 59.1667 147.116 56.2083C143.705 51.9844 139.981 48.0156 135.184 45.2396C130.324 42.4688 125.335 39.8854 120.033 37.9948C114.293 35.9792 108.673 33.7083 103.309 30.875C100.465 29.3646 97.439 28.2292 94.3453 27.3438C90.6213 26.276 87.0224 24.9531 83.6161 23.0625C79.8922 21.0469 75.9755 19.4062 72.189 17.5781C68.2099 15.6875 64.1109 15.25 59.8193 15.5C53.5693 15.8802 47.3818 16.8229 41.1943 17.5781C40.7568 17.5781 39.9963 17.3906 39.9963 18.401C42.8401 19.5312 45.8036 20.5417 48.7724 21.4219C52.0536 22.3073 55.2724 23.375 58.4286 24.6979C60.0068 25.3906 61.5224 26.151 62.8453 27.474C62.4078 27.6615 62.2151 27.7865 62.0901 27.7865C54.6422 26.0885 47.0693 25.0781 39.9963 21.9271C39.3661 21.6771 38.6734 21.0469 37.9755 21.5469C37.0328 22.3073 35.9599 22.3698 34.887 22.4323C34.314 22.4323 33.6838 22.7448 33.5588 23.25C33.3713 23.9427 34.064 24.1302 34.5693 24.3229C41.8297 26.9688 48.5172 31 56.0953 32.7656C57.4807 33.0781 58.8713 33.4583 60.3245 34.8438C54.7672 36.2292 50.0953 34.3385 45.2359 33.2083H44.8557ZM403.449 94.3281C402.689 93.8229 402.314 94.3281 401.871 94.6458C400.038 95.651 398.21 96.849 396.189 97.4792C394.866 97.9219 393.726 98.6771 392.653 99.5573C386.533 104.661 380.22 109.578 373.59 114.052C371.382 115.562 369.111 116.885 366.84 118.271C366.08 118.714 365.007 119.594 364.377 118.714C363.616 117.641 364.882 116.948 365.637 116.318C366.397 115.625 367.215 115.057 368.038 114.495C375.673 109.26 383.059 103.526 390.887 98.6146C391.392 98.2969 392.21 98.1094 391.96 97.2292C391.455 95.5885 392.465 94.8333 393.726 94.2656C397.387 92.5 400.606 90.0417 404.017 87.901C411.403 83.2396 417.335 76.9375 423.142 70.5104C424.153 69.375 424.97 67.9896 425.856 66.6667C426.173 66.224 426.679 65.7188 426.298 65.026C424.845 65.7188 423.772 66.7292 422.699 67.7396C420.934 69.3125 419.231 71.0156 417.397 72.5885C413.861 75.6771 410.137 78.5104 405.783 80.401C404.897 80.7812 403.762 81.4115 403.069 80.276C402.377 79.0781 403.574 78.5104 404.392 77.9427C406.856 76.1823 409.002 74.0365 411.272 72.0208C412.283 71.1406 413.231 70.1927 413.736 68.8698C413.486 68.8073 413.423 68.6823 413.356 68.7448C406.226 72.1458 398.46 73.849 391.074 76.6823C389.877 77.125 388.616 77.5677 387.351 77.4427C386.595 77.3802 385.903 77.0625 385.772 76.1823C385.647 75.2969 386.09 74.7969 386.908 74.5417C387.351 74.4167 387.793 74.3542 388.236 74.1667C392.59 72.776 396.944 71.4531 401.366 70.0677C399.851 67.2344 399.976 66.7917 402.689 65.151C403.194 64.8385 403.955 64.776 404.267 63.6406C401.241 64.651 398.397 63.7656 395.559 63.3281C394.736 63.1979 393.856 63.0729 393.095 63.1979C388.866 63.9583 384.637 63.4531 380.47 63.1354C376.559 62.8229 372.71 62.1927 368.731 60.7448C369.804 60.2396 370.627 60.4271 371.382 60.5521C374.095 60.9323 376.877 60.9323 379.653 61.1198C387.668 61.625 395.366 60.1146 403.069 58.0938C405.028 57.5938 405.97 56.5833 405.845 55.5104C405.72 54.5052 404.71 53.9375 402.439 53.875C400.668 53.875 398.965 53.875 397.199 53.6198C393.158 52.9948 389.184 52.6771 385.08 52.9271C382.616 53.0573 380.095 53.0573 377.632 52.7396C375.866 52.4896 374.033 52.4271 372.267 50.849C376.241 50.0938 379.903 49.651 383.439 50.2188C387.731 50.9115 391.642 49.9688 395.559 48.8333C397.199 48.3906 398.965 48.2656 400.668 46.8802C399.726 46.7552 399.158 46.6302 398.59 46.5625C391.012 45.8698 383.439 44.7396 375.929 43.224C369.804 41.9635 363.684 40.8333 357.371 40.5156C348.72 40.1354 340.074 40.8958 331.491 41.901C324.986 42.6562 318.611 43.9167 312.554 46.5C301.257 51.2292 291.158 57.8438 281.689 65.5312C276.892 69.4375 272.726 73.974 268.496 78.4479C261.996 85.3177 254.673 91.3646 248.673 98.7396C248.106 99.4323 247.351 100.062 246.658 100.568C245.71 101.26 244.637 102.078 243.371 101.323C242.048 100.505 242.491 99.2448 242.741 98.1094C243.371 95.3385 244.949 93.1302 246.97 91.1771C252.21 86.1354 258.08 81.7865 263.699 77.25C266.538 74.9844 268.304 72.0833 269.189 68.8698C270.58 63.7656 272.158 58.6615 273.168 53.4323C274.616 46 275.564 38.5625 274.934 31C274.429 24.7604 272.663 18.8385 268.054 14.3021C264.012 10.3333 259.533 7.05729 254.673 4.15625C251.517 2.32813 248.236 1.95313 244.824 2.58333C241.356 3.21354 238.132 4.59896 235.293 6.73958C232.767 8.69271 230.371 10.901 228.095 13.1667C224.814 16.5104 223.804 20.6667 223.366 25.2031C224.059 25.1406 224.502 25.0781 224.944 25.0781C226.772 25.0781 227.97 24.3854 228.668 22.4948C229.236 20.9844 230.434 19.724 231.382 18.3958C231.887 17.7031 232.58 17.1406 233.465 17.5781C234.283 18.0208 234.538 18.8385 234.408 19.724C234.283 20.8542 233.778 21.8021 233.147 22.7448C232.767 23.375 232.262 23.8802 232.262 24.6979C232.262 27.6615 232.262 30.625 235.168 32.5156C235.481 32.7031 235.736 33.0156 235.986 33.2708C237.564 35.099 238.574 35.4115 240.595 34.0885C245.455 30.875 248.991 26.7135 249.496 20.5417C249.684 18.4635 249.809 16.3177 250.064 14.2396C250.189 13.0417 250.507 11.7188 252.272 11.3385C252.715 16.1927 252.715 20.7917 251.58 25.3906C251.387 26.2135 251.137 26.8438 251.767 27.6615C254.861 32.0729 255.366 37.2396 254.673 42.1562C252.272 58.474 243.752 71.1406 230.054 80.276C227.595 81.9167 225.132 83.4896 222.731 85.2552C217.366 89.099 214.085 94.3906 213.199 100.818C212.127 108.255 214.085 115.188 217.934 121.677C218.632 122.807 219.449 123.755 220.46 124.51C223.616 126.781 226.96 128.734 230.877 129.365C236.116 130.307 241.288 131.63 246.403 133.083C256.944 136.042 267.736 137.745 278.533 139.698C286.736 141.146 294.882 140.328 302.96 138.943C312.804 137.24 322.653 136.422 332.564 138.188C336.793 138.943 341.085 139.698 345.377 140.203C351.814 140.958 358.002 140.073 363.996 137.62C372.455 134.214 379.397 128.797 385.397 121.99C389.877 116.885 393.351 110.964 398.653 106.49C396.002 104.786 395.746 103.844 397.137 101.448C398.017 99.9375 399.158 98.6146 400.418 97.4167C401.429 96.4062 402.439 95.401 403.512 94.3281H403.449ZM223.804 33.776C222.668 34.0885 222.226 34.7812 222.356 35.8542C222.731 40.2031 221.72 44.4219 221.22 48.7083C221.028 50.2188 220.08 51.8594 221.345 53.3698C223.048 52.9948 224.121 51.6667 225.194 50.474C228.538 46.6302 230.877 42.1562 233.778 38.0573C234.095 37.6146 234.283 37.1771 234.095 36.5469C233.528 34.5938 231.127 32.5781 229.043 32.4479C226.647 32.2604 226.08 32.9531 226.392 35.349C226.585 36.4219 226.772 37.4896 226.835 38.625C226.835 39.0677 226.585 39.5052 226.08 39.6354C225.512 39.7604 225.007 39.6354 224.627 39.1302C224.309 38.625 224.121 38.1198 224.371 37.5521C224.877 36.2292 224.184 35.099 223.804 33.901V33.776ZM204.616 54.25C204.934 53.1823 204.741 52.2969 204.616 51.4167C203.861 47.3229 204.616 43.4167 205.752 39.5052C206.574 36.6719 206.069 35.474 203.418 33.8385C203.101 34.5938 203.668 35.0312 204.048 35.5365C204.616 36.2917 204.996 37.1146 204.996 38.0573C204.996 38.9427 205.184 40.0729 204.048 40.3281C203.038 40.5781 202.595 39.6979 202.22 39.0052C201.585 37.7448 201.397 36.4219 201.335 35.0312C201.272 34.0885 201.585 33.0156 200.705 32.0104C199.439 33.5833 198.116 35.099 196.663 36.4844C196.095 36.9896 195.653 37.7448 195.908 38.6875C196.981 42.4062 197.611 46.1875 199.252 49.7135C200.387 52.1719 201.84 53.875 204.741 54.3177L204.616 54.25ZM40.9443 91.8698C41.0693 91.6823 41.1943 91.5573 41.262 91.3646C37.0953 87.5885 33.7463 83.1146 30.0224 78.9531C29.0797 77.8802 27.8765 77.25 26.6161 76.75C25.5432 76.3698 24.4703 76.4948 23.9026 77.4427C23.3974 78.3854 24.4703 78.8281 25.038 79.3333C29.3297 82.9219 33.6838 86.3906 38.038 89.9167C38.9234 90.6094 39.9338 91.2396 40.8818 91.8698H40.9443ZM256.627 86.3281L256.121 85.9479C252.715 88.5312 249.434 91.3021 246.528 94.5156C245.835 95.276 245.205 96.0312 244.824 96.974C244.637 97.4167 244.507 97.8594 244.949 98.1719C245.33 98.4896 245.835 98.4896 246.215 98.1719C246.783 97.7292 247.351 97.2292 247.856 96.724C249.939 94.3906 251.96 92.0573 253.976 89.6667C254.923 88.5938 255.746 87.3958 256.564 86.2604L256.627 86.3281ZM176.783 93.6979C178.361 98.9271 181.642 102.964 185.741 106.427C182.965 102.016 180.569 97.3542 176.783 93.6979Z" fill="black"/>
</svg>
